<svg width="54" height="53" viewBox="0 0 54 53" fill="none" xmlns="http://www.w3.org/2000/svg">
<g id="icons8-instagram">
<path id="Vector" d="M18.7187 5.52087C11.7171 5.52087 6.02075 11.2173 6.02075 18.2188V34.7813C6.02075 41.7828 11.7171 47.4792 18.7187 47.4792H35.2812C42.2827 47.4792 47.9791 41.7828 47.9791 34.7813V18.2188C47.9791 11.2173 42.2827 5.52087 35.2812 5.52087H18.7187ZM38.0416 13.25C39.2617 13.25 40.2499 14.2383 40.2499 15.4584C40.2499 16.6774 39.2617 17.6667 38.0416 17.6667C36.8215 17.6667 35.8333 16.6774 35.8333 15.4584C35.8333 14.2383 36.8215 13.25 38.0416 13.25ZM26.9999 15.4584C33.0883 15.4584 38.0416 20.4117 38.0416 26.5C38.0416 32.5884 33.0883 37.5417 26.9999 37.5417C20.9115 37.5417 15.9583 32.5884 15.9583 26.5C15.9583 20.4117 20.9115 15.4584 26.9999 15.4584ZM26.9999 18.7709C25.9849 18.7709 24.9798 18.9708 24.0421 19.3592C23.1043 19.7476 22.2523 20.317 21.5346 21.0347C20.8169 21.7524 20.2475 22.6045 19.8591 23.5422C19.4707 24.48 19.2708 25.485 19.2708 26.5C19.2708 27.5151 19.4707 28.5201 19.8591 29.4579C20.2475 30.3956 20.8169 31.2477 21.5346 31.9654C22.2523 32.6831 23.1043 33.2524 24.0421 33.6409C24.9798 34.0293 25.9849 34.2292 26.9999 34.2292C28.0149 34.2292 29.02 34.0293 29.9577 33.6409C30.8955 33.2524 31.7475 32.6831 32.4653 31.9654C33.183 31.2477 33.7523 30.3956 34.1407 29.4579C34.5292 28.5201 34.7291 27.5151 34.7291 26.5C34.7291 25.485 34.5292 24.48 34.1407 23.5422C33.7523 22.6045 33.183 21.7524 32.4653 21.0347C31.7475 20.317 30.8955 19.7476 29.9577 19.3592C29.02 18.9708 28.0149 18.7709 26.9999 18.7709Z" fill="#DF8480"/>
</g>
</svg>
